<?xml version="1.0" encoding="UTF-8"?>
<svg id="Layer_1" data-name="Layer 1" xmlns="http://www.w3.org/2000/svg" viewBox="0 0 682 599">
  <defs>
    <style>
      .cls-1 {
        fill: #cd2d40;
      }

      .cls-1, .cls-2 {
        stroke-width: 0px;
      }

      .cls-2 {
        fill: #e3dbde;
      }
    </style>
  </defs>
  <g>
    <path class="cls-1" d="M299.5,549c-66.64,0-129.3-25.95-176.42-73.08-47.12-47.12-73.08-109.78-73.08-176.42s25.95-129.3,73.08-176.42c47.12-47.12,109.78-73.08,176.42-73.08s129.3,25.95,176.42,73.08c47.12,47.12,73.08,109.78,73.08,176.42s-25.95,129.3-73.08,176.42c-47.12,47.12-109.78,73.08-176.42,73.08Z"/>
    <path class="cls-1" d="M299.5,100c53.29,0,103.39,20.75,141.07,58.43,37.68,37.68,58.43,87.78,58.43,141.07s-20.75,103.39-58.43,141.07c-37.68,37.68-87.78,58.43-141.07,58.43s-103.39-20.75-141.07-58.43c-37.68-37.68-58.43-87.78-58.43-141.07s20.75-103.39,58.43-141.07c37.68-37.68,87.78-58.43,141.07-58.43M299.5,0C134.09,0,0,134.09,0,299.5s134.09,299.5,299.5,299.5,299.5-134.09,299.5-299.5S464.91,0,299.5,0h0Z"/>
  </g>
  <circle class="cls-2" cx="479" cy="299" r="75"/>
  <circle class="cls-2" cx="120" cy="299" r="75"/>
  <circle class="cls-2" cx="393" cy="145" r="75"/>
  <circle class="cls-2" cx="214" cy="141" r="75"/>
  <rect class="cls-1" x="299" y="506" width="383" height="93"/>
  <circle class="cls-2" cx="214" cy="457" r="75"/>
  <circle class="cls-2" cx="393" cy="457" r="75"/>
</svg>