<?xml version="1.0" encoding="UTF-8"?>
<svg id="Layer_1" data-name="Layer 1" xmlns="http://www.w3.org/2000/svg" viewBox="0 0 328 52.76">
  <defs>
    <style>
      .cls-1 {
        fill: #cd2d40;
        stroke-width: 0px;
      }
    </style>
  </defs>
  <path class="cls-1" d="M51.98,26.6c0,7.31-2.33,13.44-7,18.39-4.76,5.02-10.78,7.52-18.07,7.52s-13.25-2.53-18.04-7.59c-4.69-4.95-7.03-11.05-7.03-18.32s2.34-13.42,7.03-18.39C13.66,3.13,19.68.59,26.92.59s13.2,2.54,18,7.63c4.71,5.02,7.07,11.14,7.07,18.39ZM38.66,26.53c0-3.52-1.07-6.5-3.2-8.96-2.23-2.58-5.07-3.87-8.54-3.87s-6.11,1.34-8.4,4.01c-2.23,2.58-3.34,5.54-3.34,8.89,0,3.59,1.04,6.57,3.13,8.96,2.2,2.51,5.07,3.76,8.61,3.76,3.3,0,6.12-1.32,8.44-3.97,2.2-2.53,3.3-5.47,3.3-8.82Z"/>
  <path class="cls-1" d="M113.16,49.91c0,.82-.35,1.28-1.05,1.37s-2.44.14-5.2.14-4.64-.07-5.34-.21-1.05-.71-1.05-1.72c0-1.08.04-2.69.11-4.83s.11-3.76.11-4.83c0-4.1-.05-7.02-.14-8.75-.14-2.79-1.46-4.18-3.97-4.18-1.1,0-2.2.46-3.29,1.39-1.09.93-1.69,1.95-1.81,3.08-.09.98-.14,3.87-.14,8.65,0,1.1.04,2.77.11,5.01s.11,3.92.11,5.04c0,.77-.34,1.16-1.02,1.16h-10.65c-.66,0-.98-.48-.98-1.44,0-1.1.04-2.75.11-4.96s.11-3.87.11-4.99c0-.87-.02-2.18-.07-3.94-.05-1.76-.07-3.08-.07-3.97,0-3.35-1.28-5.03-3.83-5.03-1.03,0-2.14.4-3.34,1.2-1.31.87-1.97,1.78-1.97,2.74,0,2.13.01,5.32.04,9.56.02,4.24.04,7.42.04,9.53,0,.59-.07.95-.21,1.09s-.5.23-1.09.28c-1.05.09-2.72.14-4.99.14-1.48,0-3.15-.07-5.03-.21-.56-.05-.9-.13-1-.25s-.16-.47-.16-1.05c0-1.88.01-4.68.04-8.42.02-3.74.04-6.54.04-8.42,0-3.84-.28-8.17-.84-12.97-.05-.28-.07-.49-.07-.63,0-.4.16-.67.49-.81.52-.21,1.49-.39,2.92-.53,1.76-.16,2.8-.27,3.13-.32.23-.05,1.16-.29,2.78-.74,1.15-.33,2.07-.49,2.78-.49.44,0,.68.81.7,2.44.02,1.63.12,2.44.28,2.44.23-.09.5-.26.81-.49,2.11-1.64,3.77-2.77,4.99-3.38,1.8-.87,3.76-1.3,5.87-1.3s4.08.48,5.77,1.44c1.9,1.08,3.13,2.59,3.69,4.54,1.24-1.69,2.95-3.11,5.13-4.25,2.18-1.15,4.3-1.72,6.36-1.72,3.09,0,5.61.72,7.56,2.14,2.2,1.62,3.3,3.93,3.3,6.93,0,1.24-.04,3.11-.11,5.61s-.11,4.37-.11,5.61c0,1.48.04,3.7.11,6.66s.11,5.19.11,6.66Z"/>
  <path class="cls-1" d="M154.78,50.19c0,.63-.33,1-.98,1.09-.66.09-2.37.14-5.13.14-2.95,0-4.78-.07-5.48-.21s-1.05-.62-1.05-1.44c0-1.1.04-2.77.11-4.99s.11-3.9.11-5.03c0-.87-.02-2.16-.07-3.88-.05-1.72-.07-3.02-.07-3.88,0-3.21-1.39-4.82-4.18-4.82-.91,0-1.98.4-3.2,1.2-1.31.89-1.97,1.77-1.97,2.64v18.98c0,.77-.36,1.21-1.09,1.3-.82.09-2.5.14-5.03.14-2.74,0-4.52-.07-5.34-.21-.73-.12-1.09-.5-1.09-1.16,0-1.83.01-4.58.04-8.26.02-3.68.04-6.45.04-8.3,0-5.84-.46-10.42-1.37-13.75-.05-.21-.07-.39-.07-.53,0-.37.18-.63.53-.77,1.48-.16,3.45-.42,5.91-.77,3.73-.73,5.82-1.09,6.29-1.09.26,0,.46.79.6,2.37s.34,2.37.6,2.37c-.26,0,1-.81,3.78-2.44,2.78-1.63,5.21-2.44,7.29-2.44,2.98,0,5.46.7,7.45,2.11,2.23,1.62,3.34,3.87,3.34,6.75v11.21c0,1.52.01,3.8.04,6.84.02,3.04.04,5.31.04,6.84Z"/>
  <path class="cls-1" d="M173.66,35.07c0,1.71.04,4.26.11,7.65s.11,5.92.11,7.61c0,.49-.29.79-.88.88-.8.14-2.59.21-5.38.21s-4.62-.07-5.41-.21c-.52-.09-.83-.25-.95-.46-.05-.09-.07-.45-.07-1.05,0-1.62.04-4.05.11-7.29s.11-5.69.11-7.33c0-6.66-.26-11.95-.77-15.89-.05-.37-.07-.62-.07-.74,0-.47.32-.7.95-.7s1.66.07,3.01.21c1.35.14,2.36.21,3.04.21s1.7-.06,3.06-.18c1.36-.12,2.38-.18,3.06-.18.56,0,.84.23.84.7,0,.09-.02.32-.07.67-.52,4.57-.77,9.87-.77,15.89ZM174.57,8.95c0,4.08-2.3,6.12-6.89,6.12-1.97,0-3.6-.52-4.89-1.55-1.41-1.12-2.11-2.65-2.11-4.57s.73-3.33,2.18-4.5c1.34-1.08,2.94-1.62,4.82-1.62s3.41.55,4.75,1.65c1.43,1.17,2.14,2.66,2.14,4.46Z"/>
  <path class="cls-1" d="M223.97,49.24c0,1.01-.43,1.66-1.3,1.97-.7.23-2.55.35-5.55.35s-4.99-.12-6.33-.35c-.63-.12-1.05-.24-1.25-.37-.2-.13-.45-.46-.76-1-1.71-3.14-3.41-6.28-5.1-9.42-2.79-5.06-4.45-7.85-4.99-8.37-2.53.91-3.8,1.57-3.8,1.97,0,1.76.07,4.41.21,7.96s.21,6.22.21,8c0,.73-.32,1.14-.95,1.23-1.22.19-3.42.28-6.61.28s-5.06-.09-6.05-.28c-.68-.14-1.02-.5-1.02-1.09,0-2.53.12-6.35.37-11.46s.37-8.94.37-11.5c0-2.72-.12-6.8-.35-12.25-.23-5.45-.35-9.53-.35-12.25,0-.52.25-.77.74-.77.73,0,1.82.04,3.29.11,1.46.07,2.56.11,3.29.11s1.86-.04,3.34-.11,2.58-.11,3.3-.11c.4,0,.6.21.6.63,0,1.73-.09,4.35-.26,7.86-.18,3.5-.26,6.12-.26,7.86,0,2.02.55,3.02,1.65,3.02,2.79,0,4.96-.76,6.5-2.29,1.15-1.12,2.31-3.18,3.48-6.15.75-2.27,1.98-5.62,3.69-10.05.26-.59.79-.88,1.58-.88.61,0,1.53.04,2.76.11s2.15.11,2.76.11,1.58-.02,2.83-.07c1.25-.05,2.19-.07,2.79-.07.56,0,.84.27.84.81,0,.77-.49,2.66-1.48,5.66-2.91,8.86-6.25,14.39-10.02,16.59-.77.45-1.16.81-1.16,1.09,0-.02,2.16,3.49,6.49,10.55,4.32,7.05,6.49,11.25,6.49,12.59Z"/>
  <path class="cls-1" d="M240.77,35.07c0,1.71.04,4.26.11,7.65s.11,5.92.11,7.61c0,.49-.29.79-.88.88-.8.14-2.59.21-5.38.21s-4.62-.07-5.41-.21c-.52-.09-.83-.25-.95-.46-.05-.09-.07-.45-.07-1.05,0-1.62.04-4.05.11-7.29s.11-5.69.11-7.33c0-6.66-.26-11.95-.77-15.89-.05-.37-.07-.62-.07-.74,0-.47.32-.7.95-.7s1.66.07,3.01.21,2.36.21,3.04.21,1.7-.06,3.06-.18c1.36-.12,2.38-.18,3.06-.18.56,0,.84.23.84.7,0,.09-.02.32-.07.67-.52,4.57-.77,9.87-.77,15.89ZM241.69,8.95c0,4.08-2.3,6.12-6.89,6.12-1.97,0-3.6-.52-4.89-1.55-1.41-1.12-2.11-2.65-2.11-4.57s.73-3.33,2.18-4.5c1.34-1.08,2.94-1.62,4.82-1.62s3.41.55,4.75,1.65c1.43,1.17,2.14,2.66,2.14,4.46Z"/>
  <path class="cls-1" d="M282.5,50.19c0,.63-.33,1-.98,1.09s-2.37.14-5.13.14c-2.95,0-4.78-.07-5.48-.21s-1.05-.62-1.05-1.44c0-1.1.04-2.77.11-4.99s.11-3.9.11-5.03c0-.87-.02-2.16-.07-3.88s-.07-3.02-.07-3.88c0-3.21-1.39-4.82-4.18-4.82-.91,0-1.98.4-3.2,1.2-1.31.89-1.97,1.77-1.97,2.64v18.98c0,.77-.36,1.21-1.09,1.3-.82.09-2.5.14-5.03.14-2.74,0-4.52-.07-5.34-.21-.73-.12-1.09-.5-1.09-1.16,0-1.83.01-4.58.04-8.26s.04-6.45.04-8.3c0-5.84-.46-10.42-1.37-13.75-.05-.21-.07-.39-.07-.53,0-.37.18-.63.53-.77,1.48-.16,3.45-.42,5.91-.77,3.73-.73,5.82-1.09,6.29-1.09.26,0,.46.79.6,2.37s.34,2.37.6,2.37c-.26,0,1-.81,3.78-2.44,2.78-1.63,5.21-2.44,7.29-2.44,2.98,0,5.46.7,7.45,2.11,2.23,1.62,3.34,3.87,3.34,6.75v11.21c0,1.52.01,3.8.04,6.84s.04,5.31.04,6.84Z"/>
  <path class="cls-1" d="M322.2,33.91c0,5.34-1.63,9.68-4.9,13.01s-7.56,4.99-12.88,4.99-9.4-1.64-12.73-4.92-4.99-7.5-4.99-12.66c0-5.44,1.59-9.85,4.78-13.24,3.19-3.39,7.5-5.08,12.94-5.08s9.59,1.66,12.87,4.97c3.28,3.32,4.92,7.62,4.92,12.92ZM310.66,33.91c0-1.85-.57-3.49-1.72-4.9-1.15-1.42-2.64-2.13-4.46-2.13s-3.38.73-4.57,2.18c-1.12,1.36-1.69,2.98-1.69,4.85s.56,3.53,1.69,4.89c1.2,1.45,2.72,2.18,4.57,2.18s3.34-.73,4.54-2.18c1.1-1.36,1.65-2.99,1.65-4.89Z"/>
</svg>